<svg id="Layer_1" enable-background="new 0 0 512 512" height="512" viewBox="0 0 512 512" width="512" xmlns="http://www.w3.org/2000/svg"><g><g id="XMLID_390_"><g><g id="XMLID_586_"><g id="XMLID_587_"><g id="XMLID_588_"><g id="XMLID_589_"><g id="XMLID_590_"><g id="XMLID_688_"><g id="XMLID_699_"><g id="XMLID_700_"><g id="XMLID_701_"><g id="XMLID_702_"><g id="XMLID_703_"><g id="XMLID_741_"><g id="XMLID_742_"><g id="XMLID_743_"><circle cx="256" cy="256" fill="#ffe670" r="256"/></g></g></g></g></g></g></g></g></g></g></g></g></g></g></g></g><path d="m512 256c0-15.546-1.388-30.767-4.043-45.549l-61.563-62.001s-86.88 45.911-99.796 35.619l-52.391-53.485-258.506 185.154 195.02 195.02c8.317.815 16.748 1.242 25.279 1.242 141.385 0 256-114.615 256-256z" fill="#fcd32b"/><g><path d="m482.964 267.498s-14.689 50.022-72.993 48.62l-93.847 22.203h-106.765s-145.723-22.909-163.289-48.198c-7.313-10.538-4.352-36.776-4.352-36.776 15.743-8.156 39.526-17.84 62.94-27.197 0 0 51.644-1.802 65.754-8.715 9.557-4.679 38.356-39.336 38.356-39.336 15.817-8.62 32.909-18.093 47.619-26.291 0 0 67.861 27.398 121.413 27.398 46.375 0 75.438-24.858 82.919-5.732v.011c6.217 15.89 10.896 35.438 14.837 53.762 1.791 8.335 3.435 16.417 4.995 23.783 1.17 5.498 1.97 11.03 2.413 16.468z" fill="#3d5d72"/><path d="m482.96 267.5s-14.69 50.02-72.99 48.62l-93.85 22.2v-167.72c19.7 4.78 41.69 8.6 61.68 8.6 46.38 0 75.44-24.85 82.92-5.73v.01c6.22 15.89 10.9 35.44 14.84 53.76 1.79 8.34 3.43 16.42 4.99 23.79 1.17 5.5 1.97 11.03 2.41 16.47z" fill="#304f60"/><path d="m482.964 267.498s-14.689 50.022-72.993 48.62l-93.847 22.203h-54.489c.864-33.541 25.164-87.292 99.864-84.932 82.192 2.603 114.058-26.143 114.058-26.143 1.791 8.335 3.435 16.417 4.995 23.783 1.169 5.499 1.969 11.031 2.412 16.469z" fill="#304f60"/><path d="m482.96 267.5s-14.69 50.02-72.99 48.62l-93.85 22.2v-78.01c12.48-4.83 27.48-7.49 45.38-6.92 82.19 2.6 114.06-26.15 114.06-26.15 1.79 8.34 3.43 16.42 4.99 23.79 1.17 5.5 1.97 11.03 2.41 16.47z" fill="#24404c"/><path d="m209.359 338.32h-63.826c-111.803 0-127.187-32.719-124.068-55.901 1.718-12.719 9.558-23.53 20.253-29.073 0 0 40.179 50.127 107.619 48.725 38.578-.811 53.941 19.084 60.022 36.249z" fill="#00ceb4"/><path d="m444.913 338.32h-128.789c5.817-40.453 82.645-43.077 114.216-46.787 35.269-4.152 52.108-23.435 52.624-24.036 3.077 37.198-10.516 70.823-38.051 70.823z" fill="#00b298"/><path d="m460.719 173.472v.011c-.443.969-24.089 51.928-100.633 42.877-77.271-9.126-103.699-64.553-103.699-64.553 10.811-21.707 37.819-21.223 37.819-21.223s24.977 40.116 78.529 40.116c46.375 0 57.415-30.169 57.415-30.169 13.372.001 23.088 13.815 30.569 32.941z" fill="#00ceb4"/><path d="m460.72 173.47v.01c-.44.97-24.09 51.93-100.63 42.88-17.04-2.01-31.61-6.28-43.97-11.71v-51.97c12.9 9.31 31.66 18.02 56.61 18.02 46.38 0 57.42-30.17 57.42-30.17 13.37 0 23.09 13.82 30.57 32.94z" fill="#00b298"/><path d="m241.343 221.286s-50.91 38.467-93.755 31.185c-21.907-3.72-35.185-15.606-42.93-26.323 24.278-9.695 48.146-19.041 62.255-25.954 9.557-4.679 24.984-12.908 41.855-22.097z" fill="#304f60"/></g></g></svg>